<svg width="123" height="120" viewBox="0 0 123 120" fill="none" xmlns="http://www.w3.org/2000/svg">
<g clip-path="url(#clip0_315_2)">
<path d="M65.3899 29.2001V23.5301C66.0793 23.2717 66.748 22.9608 67.3899 22.6001C69.9035 21.108 71.7967 18.7617 72.7238 15.9895C73.6509 13.2173 73.5502 10.2042 72.4399 7.50011C71.8229 6.02547 70.9264 4.68415 69.7999 3.55011C68.6767 2.4268 67.3452 1.53344 65.8799 0.920112C64.4034 0.30601 62.819 -0.00678321 61.2199 0.000111548C58.8175 -0.000227108 56.469 0.712245 54.4717 2.04733C52.4744 3.38242 50.9181 5.28009 49.9999 7.50011C48.7737 10.4685 48.7737 13.8018 49.9999 16.7701C50.6109 18.245 51.5082 19.5841 52.6399 20.7101L52.6999 20.7701C53.4121 21.4705 54.2042 22.0847 55.0599 22.6001C55.6945 22.9748 56.3644 23.2863 57.0599 23.5301V29.2001H28.5799C24.4926 29.2133 20.5766 30.8435 17.6873 33.7346C14.7981 36.6258 13.1704 40.5428 13.1599 44.6301V46.9201H7.87988C5.78538 46.928 3.77907 47.7643 2.29896 49.2462C0.818846 50.7282 -0.0148512 52.7356 -0.0201187 54.8301V73.2001C-0.0148512 75.2946 0.818846 77.302 2.29896 78.784C3.77907 80.266 5.78538 81.1022 7.87988 81.1101H13.1299V83.1801C13.1431 87.2718 14.7757 91.1918 17.6709 94.0832C20.566 96.9746 24.4882 98.6022 28.5799 98.6101H67.6499L91.0699 118.72C91.3281 118.942 91.6276 119.11 91.9511 119.216C92.2747 119.321 92.616 119.362 92.9552 119.335C93.2945 119.308 93.6251 119.214 93.928 119.059C94.2308 118.904 94.5 118.69 94.7199 118.43C95.1597 117.917 95.3853 117.255 95.3499 116.58L94.0999 98.5801H94.3099C98.3919 98.5696 102.304 96.944 105.191 94.0585C108.079 91.173 109.707 87.2621 109.72 83.1801V81.1101H114.97C117.066 81.1048 119.075 80.2698 120.557 78.7875C122.04 77.3052 122.875 75.2964 122.88 73.2001V54.8301C122.875 52.7356 122.041 50.7282 120.561 49.2462C119.081 47.7643 117.074 46.928 114.98 46.9201H109.72V44.6201C109.712 40.5346 108.086 36.6186 105.198 33.7288C102.31 30.839 98.3954 29.2107 94.3099 29.2001H65.3899ZM40.1399 47.3201C38.2887 47.3201 36.479 47.8691 34.9397 48.8976C33.4005 49.926 32.2008 51.3879 31.4924 53.0982C30.7839 54.8085 30.5986 56.6905 30.9597 58.5062C31.3209 60.3218 32.2123 61.9896 33.5214 63.2986C34.8304 64.6076 36.4982 65.4991 38.3138 65.8603C40.1295 66.2214 42.0115 66.0361 43.7218 65.3276C45.4321 64.6192 46.8939 63.4195 47.9224 61.8802C48.9509 60.341 49.4999 58.5313 49.4999 56.6801C49.4999 54.1977 48.5137 51.8169 46.7584 50.0616C45.0031 48.3063 42.6223 47.3201 40.1399 47.3201ZM82.7199 47.3201C80.8686 47.3201 79.059 47.8691 77.5197 48.8976C75.9805 49.926 74.7808 51.3879 74.0724 53.0982C73.3639 54.8085 73.1786 56.6905 73.5397 58.5062C73.9009 60.3218 74.7923 61.9896 76.1014 63.2986C77.4104 64.6076 79.0782 65.4991 80.8938 65.8603C82.7095 66.2214 84.5915 66.0361 86.3018 65.3276C88.0121 64.6192 89.4739 63.4195 90.5024 61.8802C91.5309 60.341 92.0799 58.5313 92.0799 56.6801C92.0799 54.1977 91.0937 51.8169 89.3384 50.0616C87.5831 48.3063 85.2023 47.3201 82.7199 47.3201ZM76.3399 78.6801C76.4811 78.5689 76.6086 78.4413 76.7199 78.3001C77.044 77.9198 77.2275 77.4396 77.2399 76.9401C77.2489 76.438 77.0867 75.9477 76.7799 75.5501C76.6653 75.4056 76.5344 75.2747 76.3899 75.1601C75.8398 74.7267 75.1635 74.4844 74.4633 74.4699C73.7631 74.4555 73.0773 74.6697 72.5099 75.0801C70.8009 76.4284 68.9043 77.5199 66.8799 78.3201C65.1357 78.9947 63.2799 79.3339 61.4099 79.3201C59.5164 79.2799 57.6446 78.9076 55.8799 78.2201C53.8315 77.4011 51.8985 76.3187 50.1299 75.0001C49.5496 74.6044 48.8564 74.408 48.1548 74.4405C47.4532 74.473 46.7812 74.7325 46.2399 75.1801C46.1042 75.3051 45.9803 75.4424 45.8699 75.5901C45.5759 75.996 45.4278 76.4894 45.4499 76.9901C45.4926 77.4909 45.696 77.9644 46.0299 78.3401C46.1567 78.4843 46.3012 78.612 46.4599 78.7201C48.7089 80.3822 51.1752 81.7281 53.7899 82.7201C56.1984 83.6282 58.7461 84.112 61.3199 84.1501C63.8967 84.1861 66.4585 83.7523 68.8799 82.8701C71.5486 81.8717 74.0478 80.4686 76.2899 78.7101L76.3399 78.6801ZM28.5899 34.4001H94.3099C97.0189 34.4107 99.6138 35.4922 101.528 37.4087C103.443 39.3252 104.522 41.9211 104.53 44.6301V83.1801C104.522 85.8891 103.443 88.4851 101.528 90.4016C99.6138 92.3181 97.0189 93.3996 94.3099 93.4101H91.1399C90.4543 93.4614 89.8167 93.781 89.3655 94.2997C88.9142 94.8183 88.6858 95.4941 88.7299 96.1801L89.7299 110.76L70.4299 94.1501C70.1898 93.91 69.9044 93.72 69.5902 93.5913C69.2761 93.4625 68.9394 93.3975 68.5999 93.4001H28.5999C25.8909 93.3896 23.296 92.3081 21.3814 90.3916C19.4668 88.4751 18.3878 85.8791 18.3799 83.1701V44.6201C18.3852 41.9129 19.4622 39.318 21.3755 37.4028C23.2889 35.4876 25.8827 34.408 28.5899 34.4001Z" fill="black"/>
</g>
<defs>
<clipPath id="clip0_315_2">
<rect width="122.88" height="119.35" fill="white" transform="matrix(-1 0 0 1 122.88 0)"/>
</clipPath>
</defs>
</svg>
